<?xml version="1.0" encoding="UTF-8" standalone="no"?>
<!DOCTYPE svg PUBLIC "-//W3C//DTD SVG 1.1//EN"
 "http://www.w3.org/Graphics/SVG/1.1/DTD/svg11.dtd">
<!-- Generated by graphviz version 2.38.0 (20140413.2041)
 -->
<!-- Title: models_diagram Pages: 1 -->
<svg width="748pt" height="246pt"
 viewBox="0.00 0.00 747.55 246.00" xmlns="http://www.w3.org/2000/svg" xmlns:xlink="http://www.w3.org/1999/xlink">
<g id="graph0" class="graph" transform="scale(1 1) rotate(0) translate(4 242)">
<title>models_diagram</title>
<polygon fill="none" stroke="none" points="-4,4 -4,-242 743.55,-242 743.55,4 -4,4"/>
<!-- _diagram_info -->
<g id="node1" class="node"><title>_diagram_info</title>
<text text-anchor="start" x="8" y="-209.6" font-family="Times,serif" font-size="13.00">Models diagram</text>
<text text-anchor="start" x="8" y="-196.6" font-family="Times,serif" font-size="13.00">Date: Apr 15 2016 &#45; 22:10</text>
<text text-anchor="start" x="8" y="-183.6" font-family="Times,serif" font-size="13.00">Migration version: 20160416030846</text>
<text text-anchor="start" x="8" y="-170.6" font-family="Times,serif" font-size="13.00">Generated by RailRoady 1.4.2</text>
<text text-anchor="start" x="8" y="-157.6" font-family="Times,serif" font-size="13.00">http://railroady.prestonlee.com</text>
</g>
<!-- Inventory -->
<g id="node2" class="node"><title>Inventory</title>
<path fill="none" stroke="black" d="M237.825,-137.5C237.825,-137.5 461.55,-137.5 461.55,-137.5 467.55,-137.5 473.55,-143.5 473.55,-149.5 473.55,-149.5 473.55,-225.5 473.55,-225.5 473.55,-231.5 467.55,-237.5 461.55,-237.5 461.55,-237.5 237.825,-237.5 237.825,-237.5 231.825,-237.5 225.825,-231.5 225.825,-225.5 225.825,-225.5 225.825,-149.5 225.825,-149.5 225.825,-143.5 231.825,-137.5 237.825,-137.5"/>
<text text-anchor="middle" x="349.688" y="-222.3" font-family="Times,serif" font-size="14.00">Inventory</text>
<polyline fill="none" stroke="black" points="225.825,-215.5 473.55,-215.5 "/>
<text text-anchor="start" x="233.825" y="-200.3" font-family="Times,serif" font-size="14.00">id :integer</text>
<text text-anchor="start" x="233.825" y="-186.3" font-family="Times,serif" font-size="14.00">item :integer</text>
<text text-anchor="start" x="233.825" y="-172.3" font-family="Times,serif" font-size="14.00">size :integer</text>
<text text-anchor="start" x="233.825" y="-158.3" font-family="Times,serif" font-size="14.00">created_at :timestamp without time zone</text>
<text text-anchor="start" x="233.825" y="-144.3" font-family="Times,serif" font-size="14.00">updated_at :timestamp without time zone</text>
</g>
<!-- Operation -->
<g id="node3" class="node"><title>Operation</title>
<path fill="none" stroke="black" d="M503.825,-0.5C503.825,-0.5 727.55,-0.5 727.55,-0.5 733.55,-0.5 739.55,-6.5 739.55,-12.5 739.55,-12.5 739.55,-88.5 739.55,-88.5 739.55,-94.5 733.55,-100.5 727.55,-100.5 727.55,-100.5 503.825,-100.5 503.825,-100.5 497.825,-100.5 491.825,-94.5 491.825,-88.5 491.825,-88.5 491.825,-12.5 491.825,-12.5 491.825,-6.5 497.825,-0.5 503.825,-0.5"/>
<text text-anchor="middle" x="615.688" y="-85.3" font-family="Times,serif" font-size="14.00">Operation</text>
<polyline fill="none" stroke="black" points="491.825,-78.5 739.55,-78.5 "/>
<text text-anchor="start" x="499.825" y="-63.3" font-family="Times,serif" font-size="14.00">id :integer</text>
<text text-anchor="start" x="499.825" y="-49.3" font-family="Times,serif" font-size="14.00">name :character varying</text>
<text text-anchor="start" x="499.825" y="-35.3" font-family="Times,serif" font-size="14.00">worker_id :integer</text>
<text text-anchor="start" x="499.825" y="-21.3" font-family="Times,serif" font-size="14.00">created_at :timestamp without time zone</text>
<text text-anchor="start" x="499.825" y="-7.3" font-family="Times,serif" font-size="14.00">updated_at :timestamp without time zone</text>
</g>
<!-- Worker -->
<g id="node4" class="node"><title>Worker</title>
<path fill="none" stroke="black" d="M503.825,-137.5C503.825,-137.5 727.55,-137.5 727.55,-137.5 733.55,-137.5 739.55,-143.5 739.55,-149.5 739.55,-149.5 739.55,-225.5 739.55,-225.5 739.55,-231.5 733.55,-237.5 727.55,-237.5 727.55,-237.5 503.825,-237.5 503.825,-237.5 497.825,-237.5 491.825,-231.5 491.825,-225.5 491.825,-225.5 491.825,-149.5 491.825,-149.5 491.825,-143.5 497.825,-137.5 503.825,-137.5"/>
<text text-anchor="middle" x="615.688" y="-222.3" font-family="Times,serif" font-size="14.00">Worker</text>
<polyline fill="none" stroke="black" points="491.825,-215.5 739.55,-215.5 "/>
<text text-anchor="start" x="499.825" y="-200.3" font-family="Times,serif" font-size="14.00">id :integer</text>
<text text-anchor="start" x="499.825" y="-186.3" font-family="Times,serif" font-size="14.00">name :character varying</text>
<text text-anchor="start" x="499.825" y="-172.3" font-family="Times,serif" font-size="14.00">email :character varying</text>
<text text-anchor="start" x="499.825" y="-158.3" font-family="Times,serif" font-size="14.00">created_at :timestamp without time zone</text>
<text text-anchor="start" x="499.825" y="-144.3" font-family="Times,serif" font-size="14.00">updated_at :timestamp without time zone</text>
</g>
<!-- Worker&#45;&gt;Operation -->
<g id="edge1" class="edge"><title>Worker&#45;&gt;Operation</title>
<path fill="none" stroke="#7283bd" d="M615.688,-129.176C615.688,-123.13 615.688,-116.973 615.688,-110.904"/>
<ellipse fill="none" stroke="#7283bd" cx="615.688" cy="-133.38" rx="4" ry="4"/>
<polygon fill="#7283bd" stroke="#7283bd" points="615.688,-110.81 620.188,-100.81 615.688,-105.81 615.688,-100.81 615.688,-100.81 615.688,-100.81 615.688,-105.81 611.188,-100.81 615.688,-110.81 615.688,-110.81"/>
</g>
</g>
</svg>
